<?xml version="1.0" encoding="UTF-8" standalone="no"?>
<!DOCTYPE svg PUBLIC "-//W3C//DTD SVG 1.1//EN" "http://www.w3.org/Graphics/SVG/1.1/DTD/svg11.dtd">
<!-- 由 Microsoft Visio, SVG Export 生成 10-20-0.svg Page-1 -->
<svg xmlns="http://www.w3.org/2000/svg"
     xmlns:v="http://schemas.microsoft.com/visio/2003/SVGExtensions/" width="8.40879in" height="8.40879in"
     viewBox="0 0 605.433 605.433" xml:space="preserve" color-interpolation-filters="sRGB" class="st5">
	<v:documentProperties v:langID="2052" v:metric="true" v:viewMarkup="false">
		<v:userDefs>
			<v:ud v:nameU="msvSubprocessMaster" v:prompt="" v:val="VT4(Rectangle)"/>
			<v:ud v:nameU="msvNoAutoConnect" v:val="VT0(1):26"/>
		</v:userDefs>
	</v:documentProperties>

	<style type="text/css">
	<![CDATA[
		.st1 {fill:none;stroke:#595959;stroke-width:6}
		.st2 {stroke:#595959;stroke-linecap:round;stroke-linejoin:round;stroke-width:3}
		.st3 {fill:none;stroke:#595959;stroke-dasharray:21,15;stroke-width:3}
		.st4 {stroke:#595959;stroke-linecap:round;stroke-linejoin:round;stroke-width:4.5}
		.st5 {fill:none;fill-rule:evenodd;font-size:12px;overflow:visible;stroke-linecap:square;stroke-miterlimit:3}
	]]>
	</style>

	<g v:mID="0" v:index="1" v:groupContext="foregroundPage">
		<v:userDefs>
			<v:ud v:nameU="msvThemeOrder" v:val="VT0(0):26"/>
		</v:userDefs>
		<title>页-1</title>
		<v:pageProperties v:drawingScale="0.0393701" v:pageScale="0.0393701" v:drawingUnits="24" v:shadowOffsetX="8.50394"
				v:shadowOffsetY="-8.50394"/>
		<v:layer v:name="连接线" v:index="0"/>
		<g id="shape2-1" v:mID="2" v:groupContext="shape" transform="translate(48.088,-69.6428)">
			<title>圆形</title>
			<v:userDefs>
				<v:ud v:nameU="visVersion" v:val="VT0(15):26"/>
			</v:userDefs>
			<path d="M0 354.52 A250.911 250.911 0 0 1 501.82 354.52 A250.911 250.911 0 0 1 0 354.52 Z" class="st1"/>
		</g>
		<g id="shape3-3" v:mID="3" v:groupContext="shape" v:layerMember="0" transform="translate(48.088,-313.467)">
			<title>动态连接线</title>
			<path d="M0 598.35 L248.55 598.35 A2.3622 2.3622 0 1 1 253.27 598.35 L501.82 598.35" class="st2"/>
		</g>
		<g id="shape4-6" v:mID="4" v:groupContext="shape" transform="translate(85.5318,-107.087)">
			<title>圆形.4</title>
			<v:userDefs>
				<v:ud v:nameU="visVersion" v:val="VT0(15):26"/>
			</v:userDefs>
			<path d="M0 391.97 A213.467 213.467 0 0 1 426.93 391.97 A213.467 213.467 0 0 1 0 391.97 Z" class="st3"/>
		</g>
		<g id="shape6-8" v:mID="6" v:groupContext="shape" v:layerMember="0" transform="translate(291.912,-571.465)">
			<title>动态连接线.6</title>
			<path d="M7.09 605.43 L7.09 1107.25" class="st2"/>
		</g>
		<g id="group1010-11" transform="translate(539.369,-247.864)" v:mID="1010" v:groupContext="group">
			<title>工作表.1010</title>
			<g id="shape1008-12" v:mID="1008" v:groupContext="shape"
					transform="translate(-548.715,739.903) rotate(67.3378) scale(1,-1)">
				<title>工作表.1008</title>
				<path d="M0 605.43 L45.64 605.43" class="st4"/>
			</g>
			<g id="shape1009-15" v:mID="1009" v:groupContext="shape"
					transform="translate(544.489,870.162) rotate(-64.0711) scale(1,-1)">
				<title>工作表.1009</title>
				<path d="M0 605.43 L63.03 605.43" class="st4"/>
			</g>
		</g>
		<g id="shape1012-18" v:mID="1012" v:groupContext="shape" transform="translate(617.32,472.417) rotate(110.16)">
			<title>工作表.1012</title>
			<path d="M0 605.43 L45.29 605.43" class="st4"/>
		</g>
		<g id="shape1013-21" v:mID="1013" v:groupContext="shape" transform="translate(-483.558,627.687) rotate(-115.929)">
			<title>工作表.1013</title>
			<path d="M0 605.43 L63.03 605.43" class="st4"/>
		</g>
		<g id="shape1004-24" v:mID="1004" v:groupContext="shape" transform="translate(15.9406,-519.815) rotate(-22.6222)">
			<title>工作表.1004</title>
			<path d="M0 605.43 L54.69 605.43" class="st4"/>
		</g>
		<g id="shape1005-27" v:mID="1005" v:groupContext="shape" transform="translate(522.319,-544.798) rotate(21.622)">
			<title>工作表.1005</title>
			<path d="M0 605.43 L54.81 605.43" class="st4"/>
		</g>
	</g>
</svg>
