<?xml version="1.0" encoding="UTF-8"?>
<svg id="_图层_1" data-name=" 图层 1" xmlns="http://www.w3.org/2000/svg" version="1.1" xmlns:xlink="http://www.w3.org/1999/xlink" viewBox="0 0 32 32">
  <defs>
    <style>
      .cls-1 {
        fill: none;
      }

      .cls-1, .cls-2 {
        stroke-width: 0px;
      }

      .cls-3 {
        clip-path: url(#clippath);
      }

      .cls-2 {
        fill: #757575;
      }
    </style>
    <clipPath id="clippath">
      <rect class="cls-1" x="3.9" y="3.3" width="26" height="26"/>
    </clipPath>
  </defs>
  <g class="cls-3">
    <g>
      <path class="cls-2" d="M28.1,20.7c-.3.3-.6.6-1.2.5-.5,0-1.1-1.9-1.4-3.4-.5-2.2-.5-3.1-.7-4.6-.4-2.9-.7-4.5-2.2-5.5-.5-.2-1.5-.2-2,0-1.4.7-2,2.6-2.8,5.7-.4,1.4-.6,2.8-1.1,3.7-.2.5-.6.6-.8.3-.2-.4-.7-1.8-.9-3.1-.7-2.6-1.5-3.9-2.6-4-.5,0-1.9-.2-2.7,2.2-1.3,2.8-2.1,2.3-2.2,2.2l-.5,2c.9.4,2.9.3,4.3-2.9.5-1.2.7-1.2.9-1.1.2.1.6.6,1.1,3,.7,2.1,1.1,4.4,2.8,4.8.7,0,1.6-.5,2.2-1.8.5-1.2.9-3.2,1.3-4.8.5-2,1.1-4,1.8-4.1s1,1.3,1.3,3.9c.2,1.5.3,2.2.7,4.4.6,2.9,1.2,4.3,1.7,4.7s1.3.8,2,.6c.7-.2,1.4-.7,1.4-.7"/>
      <path class="cls-2" d="M6.3,3.3h-2.6v25.8h25.4v-2.2H6.2c0,.1,0-23.6,0-23.6Z"/>
    </g>
  </g>
</svg>