<?xml version="1.0" standalone="no"?><!DOCTYPE svg PUBLIC "-//W3C//DTD SVG 1.1//EN" "http://www.w3.org/Graphics/SVG/1.1/DTD/svg11.dtd"><svg t="1731341852357" class="icon" viewBox="0 0 1856 1024" version="1.1" xmlns="http://www.w3.org/2000/svg" p-id="5907" xmlns:xlink="http://www.w3.org/1999/xlink" width="362.5" height="200"><path d="M1839.253649 451.779071a525.333588 525.333588 0 0 0-131.96833-95.826004 1333.749499 1333.749499 0 0 1-204.057617-142.615664l-14.847658-13.48011C1390.111991 110.771344 1267.814175 0 1147.763045 0a228.08738 228.08738 0 0 0-84.592579 25.201946 264.522751 264.522751 0 0 1-272.825717 0A228.08738 228.08738 0 0 0 705.75217 0c-120.05113 0-242.251264 110.771344-340.519317 199.661929l-15.043022 13.675474a1357.779262 1357.779262 0 0 1-200.834112 141.736526C59.195269 410.459601-8.791377 477.078699 0.97682 528.45941c2.344367 12.307927 12.698655 44.542974 25.788037 47.961843a184.618907 184.618907 0 0 0 47.473434 34.091005 827.75694 827.75694 0 0 1 228.185061 195.363922 571.24411 571.24411 0 0 0 191.554326 133.628924 1022.437089 1022.437089 0 0 0 409.482782 84.397214h24.029762l18.168845-2.051321h6.251646c362.790804-4.98178 534.027282-137.633883 603.967566-216.560908a838.013546 838.013546 0 0 1 226.13374-191.26128 181.590766 181.590766 0 0 0 58.609177-45.715158 132.945149 132.945149 0 0 0 9.768196-39.658877v-1.660593a91.430316 91.430316 0 0 0 4.493371-15.726796c3.125823-13.773157-2.149003-53.334351-15.629114-59.488314zM191.456644 452.658209a1416.388438 1416.388438 0 0 0 211.286082-149.551083l15.140704-13.675475c83.908805-75.996566 198.782791-180.125537 287.38033-180.125536a230.529429 230.529429 0 0 1 51.869122 18.559572 343.64514 343.64514 0 0 0 338.370314 0 230.236383 230.236383 0 0 1 51.869121-18.559572c88.597539 0 203.569207 104.226653 287.575694 180.223218l14.94534 13.577793a1389.428217 1389.428217 0 0 0 214.900315 150.625584c23.443671 14.163884 44.542974 22.271487 67.009825 37.509873-49.720118-3.223505-112.920347-32.430411-175.82753-42.393971a1793.929219 1793.929219 0 0 0-265.499571-29.304588 1024 1024 0 0 0-166.938471 25.885719 1277.093962 1277.093962 0 0 1-205.132119 31.160546 1275.140322 1275.140322 0 0 1-205.815893-31.160546 1024.390728 1024.390728 0 0 0-167.036153-25.885719 1803.697415 1803.697415 0 0 0-265.890299 29.304588c-61.637318 9.768196-118.488219 39.072785-167.524563 42.198607 21.587713-15.531432 55.7764-23.932081 79.317752-38.38901z m1308.938281 273.509491c-62.223409 70.23333-216.560908 188.428503-552.000763 191.847372h-35.36087c-364.549079-3.907278-521.523991-160.491462-549.265668-191.847372a641.184394 641.184394 0 0 0-231.994658-173.873891c51.869121-4.00496 107.450157-10.94038 168.501383-20.610894a1746.553468 1746.553468 0 0 1 252.703234-27.937041 1049.201946 1049.201946 0 0 1 150.332538 24.225127 1296.825718 1296.825718 0 0 0 222.61719 32.821139 1296.43499 1296.43499 0 0 0 222.324144-32.821139 1051.155585 1051.155585 0 0 1 150.234856-24.225127 1736.101498 1736.101498 0 0 1 252.312506 27.937041 2020.062959 2020.062959 0 0 0 188.135458 21.490032 651.343318 651.343318 0 0 0-238.637032 173.385481z" fill="#2c2c2c" p-id="5908"></path></svg>