<?xml version="1.0" standalone="no"?><!DOCTYPE svg PUBLIC "-//W3C//DTD SVG 1.1//EN" "http://www.w3.org/Graphics/SVG/1.1/DTD/svg11.dtd"><svg class="icon" width="256px" height="256.00px" viewBox="0 0 1024 1024" version="1.1" xmlns="http://www.w3.org/2000/svg"><path d="M365.956611 335.440951l0.437246-3.060726 0.291498-2.404856c1.020242-7.724688 2.842102-15.157879 8.74493-34.542474l15.886624-51.157842c3.78947-12.242902 7.287442-24.631554 10.421042-37.020205l1.894734-7.724689 1.238866-2.842102c29.368391-65.149731 70.90681-117.983684 111.935107-120.971536l3.425098-0.145748c1.748986 0 3.352223 0 4.809712 0.145748l1.311739 0.072875-0.145749 0.874493-0.291497 2.186232c-3.206474 18.072856-14.283386 42.995907-38.404819 88.469545l-19.384596 36.218586c-34.979721 66.46147-43.797526 90.218531-40.882549 120.898661 4.008093 42.850158 65.149731 46.639628 74.477656 4.591089 14.574884-65.586977 67.044465-132.412819 136.056541-179.999815 57.06067-39.206437 112.080856-53.92707 123.376391-44.890642l5.61133 4.591088c15.230754 12.825898 15.740875 17.708484 10.639666 26.672038-4.591088 8.016186-13.336019 17.854233-27.400782 30.753004l-3.935219 3.643721c-9.109302 8.016186-47.441247 40.445303-55.74893 47.65987-49.554605 43.433154-80.890605 80.30761-99.76508 125.708373-16.906865 40.882549-29.951386 98.599089-34.4696 148.955313-2.331981 25.651795-2.259107 47.878493 0.582995 64.931107 5.465581 32.793489 22.518195 57.789414 58.591033 50.866344l7.506065-1.457488c24.267182-5.61133 36.874456-15.01213 103.481675-70.833935l20.623461-17.198363c8.526307-7.068819 17.198363-13.991888 26.016168-20.623461 43.068782-32.574865 67.77321-40.445303 78.558623-31.846121 29.732763 23.684186 23.392689 46.858251-29.587014 95.756987l-4.008093 3.643721c-13.408893 12.170028-27.327907 23.757061-48.097116 40.08093l-50.064726 39.060689c-66.752968 52.469582-88.833917 73.676038-107.416894 106.032279-46.858251 81.327852-54.655814 158.064615-39.206437 222.12123l2.040483 7.870437c2.113358 7.360316 4.153842 13.117395 5.829954 17.052614a37.748949 37.748949 0 0 0 70.323814-27.692279l-1.748986-4.663963a112.445229 112.445229 0 0 1-2.987851-10.348168c-11.149786-46.129507-5.319833-103.117303 31.263126-166.663796 13.044521-22.663944 35.854214-43.287405 105.522159-97.505973l28.566772-22.226697c24.631554-19.311721 40.809675-32.64774 56.696298-47.076875 86.210438-78.194252 109.093005-151.578792 29.951386-214.54229-48.388614-38.623442-102.607182-21.133582-171.254885 30.607256-8.817805 6.704447-17.781358 13.84614-28.275274 22.518196l-41.684168 34.761098c-9.910921 8.161935-17.854233 14.574884-24.41293 19.676093l-2.696354 2.186232 0.072875-2.404855 0.582995-10.05667 0.510121-5.246958c3.78947-43.141656 15.157879-93.49788 29.004019-126.80149 13.408893-32.210493 38.113321-61.360261 79.724614-97.79747l52.323833-44.672019 4.080967-3.643721c21.9352-19.676093 36.510084-35.708465 46.49388-53.052577 25.651795-44.744893 13.263144-89.70841-34.761098-127.967479-45.036391-35.78134-124.105136-16.469619-198.947164 32.137618l-7.651814 5.10121 0.145749-1.894735C605.203328 33.522233 576.928054 1.384614 524.0941 0L519.721635 0c-51.740838 0.291498-95.31974 28.2024-131.684075 75.935145l-1.748986 2.331981-1.676112-1.530363A77.538382 77.538382 0 0 0 337.754211 59.028279L333.308871 58.809656c-54.655814-1.093116-94.518121 41.611293-121.190159 108.874382l-2.696353 7.141693-2.550605 0.582996a51.740838 51.740838 0 0 0-13.84614 5.61133l-2.550604 1.603237C111.47914 234.50988 78.758525 304.615071 84.734228 387.400411 87.794953 429.959072 99.600609 470.768747 121.098563 523.675575l22.663944 53.635572 5.538456 13.554642c2.769228 6.777321 5.246958 13.627516 7.433191 20.550587 9.983795 32.137619 17.781358 69.230698 23.611312 110.33187a1449.472194 1449.472194 0 0 1 12.461525 227.441062l-0.65587 23.829935a310.590774 310.590774 0 0 1-0.291497 7.287442 37.821823 37.821823 0 1 0 75.497898 4.080967l0.65587-17.854233a1538.087488 1538.087488 0 0 0-12.825898-255.424838 792.873679 792.873679 0 0 0-26.234791-122.064652 382.372077 382.372077 0 0 0-11.076912-30.242884l-23.10119-54.728689c-21.133582-50.647721-32.210493-87.157805-34.688224-122.064652-2.186233-30.825879 2.914977-57.862289 17.125489-81.983721l1.676111-2.623479-0.291497 2.040484c-4.736837 48.242865-3.425098 75.497898 11.87853 97.068726l1.967609 2.696353c24.923051 32.064744 76.080893 7.506065 66.534345-32.064744-18.14573-75.2064 31.627498-233.562513 72.874419-232.760894 4.372465 0.072874 3.497972-1.530363 3.497972 2.623479l0.072874 2.914977c0.728744 9.619423-0.947367 22.59107-4.736837 39.497935l-0.728744 3.060725-0.145749 0.437247a657.691632 657.691632 0 0 0-35.562716 120.971535l-1.821861 11.441284L291.260331 323.999667c-5.538456 49.044484 66.315721 58.153786 74.623405 11.441284z" fill="#646566" /><path d="M139.754414 698.865678c-43.360279 19.530344-61.433135 72.874419-46.639628 117.91081 11.076912 33.886605 36.43721 60.267145 71.416931 81.327852 55.020186 33.157861 194.939071 52.469582 278.526029 39.643684l6.2672-1.020242-13.263144-74.331907c-65.732726 11.659907-193.11721-5.174084-232.542271-29.004019-20.842084-12.607274-34.032354-26.307665-38.623442-40.080931-3.279349-10.05667 0.145749-21.352205 4.809711-24.777302l1.020242-0.728744-30.971628-68.866326z" fill="#646566" /></svg>