<?xml version="1.0" standalone="no"?><!DOCTYPE svg PUBLIC "-//W3C//DTD SVG 1.1//EN" "http://www.w3.org/Graphics/SVG/1.1/DTD/svg11.dtd">
<svg t="1702211522013" class="icon" viewBox="0 0 1024 1024" version="1.1" xmlns="http://www.w3.org/2000/svg" p-id="3004"
     width="64" height="64"><path d="M509.8 956.3c-60.1 0-118.4-11.8-173.3-35-53-22.4-100.6-54.5-141.5-95.4s-73-88.5-95.4-141.5c-23.2-54.9-35-113.2-35-173.3 0-60.1 11.8-118.4 35-173.3 22.4-53 54.5-100.6 95.4-141.5s88.5-73 141.5-95.4c54.9-23.2 113.2-35 173.3-35s118.4 11.8 173.3 35c53 22.4 100.6 54.5 141.5 95.4s73 88.5 95.4 141.5c23.2 54.9 35 113.2 35 173.3 0 60.1-11.8 118.4-35 173.3-22.4 53-54.5 100.6-95.4 141.5s-88.5 73-141.5 95.4c-54.9 23.3-113.3 35-173.3 35z m0-808.5c-200.3 0-363.3 163-363.3 363.3s163 363.3 363.3 363.3S873 711.4 873 511.1 710.1 147.8 509.8 147.8z" p-id="3005" fill="#757575"></path><path d="M337.3 484.8c-39 0-75.8-17.1-100.9-47-15.4-18.3-13-45.6 5.3-60.9 18.3-15.4 45.6-13 60.9 5.3 8.7 10.3 21.3 16.2 34.7 16.2 14 0 26.9-6.3 35.6-17.3 14.8-18.7 42-21.9 60.7-7.1 18.7 14.8 21.9 42 7.1 60.7-25.1 31.8-62.8 50.1-103.4 50.1zM688.4 484.8c-39 0-75.8-17.1-100.9-47-15.4-18.3-13-45.6 5.3-60.9 18.3-15.4 45.6-13 60.9 5.3 8.7 10.3 21.3 16.2 34.7 16.2 14 0 26.9-6.3 35.6-17.3 14.8-18.7 42-21.9 60.7-7.1 18.7 14.8 21.9 42 7.1 60.7-25.1 31.8-62.8 50.1-103.4 50.1z" p-id="3006" fill="#757575"></path></svg>