<?xml version="1.0" standalone="no"?><!DOCTYPE svg PUBLIC "-//W3C//DTD SVG 1.1//EN" "http://www.w3.org/Graphics/SVG/1.1/DTD/svg11.dtd"><svg class="icon" width="256px" height="256.00px" viewBox="0 0 1024 1024" version="1.1" xmlns="http://www.w3.org/2000/svg"><path d="M502.135698 0c51.87892 0.292276 95.574122 28.277665 132.035504 76.137795l1.753654 2.338205 1.680585-1.534447c11.9833-10.229646 27.766182-16.586641 46.983303-17.755743l4.457203-0.219207c54.801676-1.096034 94.770365 41.722342 121.513582 109.164938l2.70355 7.160752 2.557411 0.584552a51.87892 51.87892 0 0 1 13.883091 5.626305l2.557412 1.607516c79.206689 52.025057 112.014625 122.244271 106.022975 205.323612-3.068894 42.599169-14.906056 83.590823-36.461381 136.638844l-22.724428 53.778712-5.553237 13.590815a284.676438 284.676438 0 0 0-7.453028 20.60543c-10.010439 32.223385-17.828812 69.415456-23.674324 110.626316-4.822547 33.830901-8.110648 68.538629-10.156577 102.954082 13.517747-10.010439 22.139877-20.60543 25.574115-31.200421 3.361169-10.083508 0-21.409188-4.749478-24.843426l-1.022965-0.730689 31.054283-69.050112c43.475996 19.509397 61.597084 72.995832 46.764097 118.152413-11.106473 33.977039-36.53445 60.427981-71.607523 81.544894-7.891441 4.749479-17.536536 9.206682-28.496872 13.371609-0.219207 12.860127-0.146138 25.501046 0.146138 37.84969l0.65762 23.893531 0.292276 7.30689a37.92276 37.92276 0 1 1-75.699382 4.091858l-0.65762-17.90188c-0.365345-11.544886-0.584551-23.382048-0.730689-35.365348-58.893534 10.594991-126.263061 13.883091-174.780811 6.576201l-6.283925-1.096034 13.29854-74.530279c43.768272 7.745304 114.718175 2.922756 169.154505-8.183717 1.534447-47.275579 5.480168-96.012536 12.202507-143.507321a794.989643 794.989643 0 0 1 26.304804-122.390409c2.849687-8.914406 6.356994-18.486432 11.106473-30.323594l23.162842-54.874745c21.189981-50.782886 32.296454-87.390406 34.780797-122.390409 2.192067-30.908145-2.922756-58.016707-17.171192-82.202514l-1.680585-2.63048 0.292276 2.045929c4.749479 48.371612 3.434238 75.699381-11.910231 97.327776l-1.97286 2.70355c-24.989564 32.150316-76.283933 7.526097-66.711907-32.150317 18.194156-75.407106-31.711903-234.185828-73.068901-233.38207-2.557412 0-3.361169-0.511482-3.507307 0v2.630481l-0.073069 2.922756c-0.730689 9.645095 0.949896 22.651359 4.749479 39.603344l0.730689 3.068894c16.805847 42.379963 29.592905 86.805854 35.803761 121.732789l1.826723 11.471818 1.096033 8.695199c5.553236 49.17537-66.4927 58.308983-74.822555 11.471817l-0.438413-3.068894-0.292276-2.411273a210.365366 210.365366 0 0 0-8.768268-34.634659l-15.92902-51.294369a726.816358 726.816358 0 0 1-10.448853-37.119002l-1.899791-7.745303-1.242172-2.849687c-29.446767-65.323597-71.096041-118.298551-112.233832-121.294376l-3.434238-0.146138c-1.753654 0-3.361169 0-4.822547 0.146138l-1.315241 0.073069 0.146138 0.876827 0.292276 2.192067c3.215032 18.121087 14.321505 43.110652 38.507311 88.705646l19.436327 36.315243c35.073072 66.638838 43.914409 90.459299 40.991654 121.221307-4.01879 42.964514-65.323597 46.764097-74.676417 4.603341-14.61378-65.762011-67.223389-132.766193-136.419638-180.480186-57.212949-39.311069-112.37997-54.070987-123.70565-45.010443l-5.626305 4.603341c-15.2714 12.860127-15.782883 17.755743-10.668059 26.743218 4.603341 8.037579 13.371609 17.901881 27.473906 30.835076l3.945721 3.653445c9.133613 8.037579 47.567855 40.55324 55.897709 47.787062 49.686853 43.549065 81.10648 80.521929 100.031326 126.043854 16.951985 40.991653 30.031318 98.862223 34.56159 149.352833 2.338205 25.720253 2.265136 48.006268-0.584551 65.104391-5.480168 32.881005-22.57829 57.943638-58.747397 51.002093l-7.526097-1.461378c-24.331944-5.626305-36.972864-15.052194-103.757839-71.022972l-20.678499-17.24426a758.820537 758.820537 0 0 0-26.085598-20.678499c-43.18372-32.661799-67.954078-40.55324-78.768275-31.93111-29.812112 23.747393-23.455117 46.983303 29.665974 96.012536l4.018789 3.653445c13.444678 12.202506 27.400838 23.820462 48.225475 40.187895l50.198335 39.164931c66.931113 52.609609 89.07099 73.872659 107.70356 106.315251 46.983303 81.544893 54.801676 158.486446 39.311069 222.71401l-2.045929 7.891442a134.446778 134.446778 0 0 1-5.845512 17.098122 37.849691 37.849691 0 0 1-70.51149-27.766182l1.753654-4.67641c1.022965-2.849687 2.045929-6.283925 2.995825-10.375784 11.179542-46.252614 5.33403-103.392495-31.346559-167.108576-13.079333-22.724428-35.949899-43.402927-105.803768-97.76619l-28.64301-22.286014c-24.697289-19.363259-40.918585-32.734868-56.847605-47.20251C65.91436 544.655588 42.970725 471.075205 122.323551 407.943674c48.51775-38.726518 102.881013-21.189981 171.711917 30.688939 8.841337 6.722339 17.828812 13.883091 28.350734 22.57829l41.795411 34.853866c9.937371 8.183717 17.901881 14.61378 24.478082 19.728603l2.703549 2.192067-0.073068-2.411274a291.691053 291.691053 0 0 0-0.584552-10.083508l-0.511482-5.260961c-3.799583-43.256789-15.198331-93.7474-29.081423-127.139888-13.444678-32.296454-38.215035-61.524015-79.937377-98.058465l-52.463471-44.791236-4.091859-3.653445c-21.993739-19.728603-36.607519-35.803761-46.617958-53.19416-25.720253-44.864305-13.29854-89.947817 34.853865-128.30899 45.156581-35.87683 124.436338-16.513572 199.4781 32.223385l7.672235 5.114823-0.146138-1.899791C416.425878 33.611694 444.776611 1.388309 497.751564 0L502.135698 0z" fill="#646566" /></svg>