<?xml version="1.0" standalone="no"?><!DOCTYPE svg PUBLIC "-//W3C//DTD SVG 1.1//EN" "http://www.w3.org/Graphics/SVG/1.1/DTD/svg11.dtd"><svg t="1715623078689" class="icon" viewBox="0 0 1024 1024" version="1.1" xmlns="http://www.w3.org/2000/svg" p-id="3604" width="64" height="64" xmlns:xlink="http://www.w3.org/1999/xlink"><path d="M374.271593 911.295597H135.982284c-12.880503 0-25.761006-12.880503-25.761006-25.761006V77.283019c0-12.880503 12.880503-25.761006 25.761006-25.761006h421.836478V257.610063h206.088051v167.446541c16.100629 3.220126 35.421384 3.220126 51.522012 6.440251V251.169811L564.259014 0H110.221278C81.240146 0 58.699266 22.540881 58.699266 51.522013v859.773584c0 28.981132 22.540881 51.522013 51.522012 51.522013h280.150944c-6.440252-19.320755-12.880503-35.421384-16.100629-51.522013z" fill="#757575" p-id="3605"></path><path d="M957.11436 834.012579L895.93197 792.150943c0-6.440252 3.220126-16.100629 3.220126-25.761006s0-16.100629-3.220126-25.761006l54.742138-41.861635c6.440252-6.440252 6.440252-9.660377 3.220126-16.100629l-51.522012-90.163522c-3.220126-3.220126-9.660377-6.440252-16.100629-3.220126l-64.402516 25.761006c-12.880503-9.660377-28.981132-16.100629-45.081761-25.761006l-9.660377-67.622642c3.220126-6.440252-6.440252-12.880503-9.660378-12.880503h-103.044025c-6.440252 0-12.880503 6.440252-12.880503 9.660378l-9.660377 67.622641c-16.100629 6.440252-28.981132 16.100629-45.081761 25.761006l-61.18239-25.761006c-9.660377-3.220126-12.880503 0-19.320755 6.440252l-51.522013 90.163522c-3.220126 3.220126 0 9.660377 6.440252 16.100629l54.742138 41.861635c0 6.440252-3.220126 16.100629-3.220126 25.761006s0 16.100629 3.220126 25.761006L461.214989 837.232704c-6.440252 6.440252-6.440252 9.660377-3.220126 16.100629l51.522013 90.163522c3.220126 3.220126 9.660377 6.440252 16.100629 3.220126l64.402515-25.761006c12.880503 9.660377 28.981132 16.100629 45.081761 25.761006l9.660378 67.622642c0 6.440252 6.440252 9.660377 12.880503 9.660377h103.044025c6.440252 0 12.880503-6.440252 12.880503-9.660377l9.660378-67.622642c16.100629-6.440252 32.201258-16.100629 45.081761-25.761006l64.402515 25.761006c6.440252 3.220126 12.880503 0 16.100629-6.440251l51.522013-90.163522c3.220126-6.440252 3.220126-12.880503-3.220126-16.100629zM709.164674 869.433962c-54.742138 0-103.044025-45.081761-103.044025-99.823899s45.081761-99.823899 103.044025-99.823899 103.044025 45.081761 103.044026 99.823899c-3.220126 51.522013-48.301887 99.823899-103.044026 99.823899zM609.340775 302.691824H261.56719c-19.320755 0-35.421384 16.100629-35.421384 35.421384s16.100629 35.421384 35.421384 35.421383h347.773585c19.320755 0 35.421384-16.100629 35.421384-35.421383s-16.100629-35.421384-35.421384-35.421384zM261.56719 444.377358c-19.320755 0-35.421384 16.100629-35.421384 35.421384S242.246435 515.220126 261.56719 515.220126h228.628931c35.421384-28.981132 77.283019-54.742138 122.36478-67.622642H261.56719z m-32.201258 177.106919c0 19.320755 16.100629 35.421384 35.421384 35.421383h125.584906c9.660377-22.540881 22.540881-48.301887 38.641509-67.622641H264.787316c-19.320755-3.220126-35.421384 12.880503-35.421384 32.201258z" fill="#757575" p-id="3606"></path></svg>