<!DOCTYPE svg PUBLIC "-//W3C//DTD SVG 1.1//EN" "http://www.w3.org/Graphics/SVG/1.1/DTD/svg11.dtd">
<!-- Uploaded to: SVG Repo, www.svgrepo.com, Transformed by: SVG Repo Mixer Tools -->
<svg height="800px" width="800px" version="1.1" id="Capa_1" xmlns="http://www.w3.org/2000/svg" xmlns:xlink="http://www.w3.org/1999/xlink" viewBox="-34.66 -34.66 207.95 207.95" xml:space="preserve" fill="#606060" stroke="#606060" stroke-width="4.852015">
<g id="SVGRepo_bgCarrier" stroke-width="0"/>
<g id="SVGRepo_tracerCarrier" stroke-linecap="round" stroke-linejoin="round"/>
<g id="SVGRepo_iconCarrier"> <g> <g> <path style="fill:#ffffff;" d="M55.926,138.191c0,0,3.502-3.064-2.626-8.316c0,0-14.382-16.194-21.385-28.449 c0,0-3.939-6.564,4.377-15.756c0,0,3.878-13.131,6.066-18.383c0,0-0.864-7.804-3.864-47.304c1.5-16.5,10.928-7.704,11.901-3.168 c1.198,0.191,5.571,43.821,10.074,48.323c3.876,3.876,7.329-50.708,9.465-56.874c3.616-8.879,9.489-1.647,9.998,1.684 c0.868,5.688-1.394,54.713-1.394,54.713s10.213-6.565,14.59,6.128c0,0,15.318,1.312,14.005,15.318c0,0,3.21,26.261-6.419,44.643 l-2.334,7.879L55.926,138.191z"/> <g> <path style="fill:#ffffff;" d="M43.999,6.346c-5.523,0-10.002,4.478-10.002,10.001s4.479,10.002,10.002,10.002 s10.002-4.478,10.002-10.002S49.522,6.346,43.999,6.346z M43.999,24.278c-4.38,0-7.932-3.551-7.932-7.931 c0-4.379,3.552-7.93,7.932-7.93s7.932,3.551,7.932,7.93C51.93,20.727,48.379,24.278,43.999,24.278z"/> </g> <g> <path style="fill:#ffffff;" d="M74.404,0c-5.523,0-10.002,4.478-10.002,10.001s4.479,10.002,10.002,10.002 c5.523,0,10.002-4.478,10.002-10.002S79.927,0,74.404,0z M74.404,17.932c-4.38,0-7.932-3.551-7.932-7.931 c0-4.379,3.552-7.93,7.932-7.93c4.38,0,7.932,3.551,7.932,7.93C82.336,14.381,78.784,17.932,74.404,17.932z"/> </g> </g> </g> </g>
</svg>