<?xml version="1.0" standalone="no"?><!DOCTYPE svg PUBLIC "-//W3C//DTD SVG 1.1//EN" "http://www.w3.org/Graphics/SVG/1.1/DTD/svg11.dtd">
<svg t="1702205581227" class="icon" viewBox="0 0 1024 1024" version="1.1" xmlns="http://www.w3.org/2000/svg" p-id="888"
     width="64" height="64"><path d="M521.828918 0c-51.692829 0.291227-95.231297 28.176232-131.561891 75.864687l-1.747363 2.329818-1.674556-1.528943A77.466437 77.466437 0 0 0 340.030334 58.973509L335.589119 58.755089c-54.605101-1.092102-94.430422 41.572684-121.077711 108.773362l-2.693852 7.135066-2.548238 0.582455a51.692829 51.692829 0 0 0-13.833292 5.606124l-2.548238 1.601749c-78.922573 51.838443-111.612827 121.805779-105.642669 204.587113 3.057886 42.446365 14.852588 83.290981 36.330594 136.148719l22.642915 53.585806 5.533317 13.542066c2.766658 6.771033 5.24209 13.614872 7.426294 20.531518 9.974532 32.1078 17.76486 69.166462 23.589403 110.229498 4.805249 33.709549 8.081555 68.29278 10.120146 102.584783-13.469258-9.974532-22.060461-20.531518-25.482381-31.088504-3.349113-10.047339 0-21.332393 4.732442-24.754313l1.019296-0.728068-30.942891-68.802427c-43.320047 19.439416-61.376134 72.733995-46.596353 117.728598 11.066634 33.855163 36.403401 60.211225 71.350666 81.252391 7.863135 4.732442 17.473632 9.173657 28.394652 13.323644 0.21842 12.813997 0.145614 25.409574-0.145613 37.713924l-0.655262 23.807824a310.302589 310.302589 0 0 1-0.291227 7.28068 37.78673 37.78673 0 1 0 75.427847 4.077181l0.655261-17.837666c0.364034-11.503475 0.582454-23.298177 0.728068-35.238492 58.682282 10.556986 125.810153 13.833292 174.15387 6.552612l6.261385-1.092102-13.250838-74.262938c-43.611274 7.717521-114.306679 2.912272-168.547746-8.154362a1340.737254 1340.737254 0 0 0-12.158736-142.992559 792.138003 792.138003 0 0 0-26.210449-121.951392 382.017289 382.017289 0 0 0-11.066634-30.214823l-23.079756-54.677908c-21.113973-50.600727-32.180606-87.076935-34.656037-121.951393-2.184204-30.797277 2.912272-57.808601 17.109598-81.907652l1.674556-2.621045-0.291227 2.03859c-4.732442 48.198103-3.42192 75.427847 11.867509 96.97866l1.965784 2.693852c24.899926 32.034993 76.010301 7.499101 66.47261-32.034993-18.128894-75.136619 31.598152-233.3458 72.806801-232.544925 2.548238 0 3.349113-0.509648 3.494727 0v2.621045l0.072807 2.912272c0.728068 9.610498-0.946488 22.570109-4.732442 39.461287l-0.728069 3.057886a656.862965 656.862965 0 0 0-35.675332 121.296131l-1.82017 11.430668L293.579595 323.699041c-5.533317 48.998978 66.25419 58.099828 74.554165 11.430667l0.436841-3.057885 0.291227-2.402625c1.019295-7.717521 2.839465-15.143815 8.736816-34.510424l15.871883-51.110375c3.785954-12.231543 7.28068-24.608699 10.411372-36.985855l1.892977-7.717521 1.237716-2.839465c29.341141-65.089281 70.841018-117.874212 111.831247-120.859291l3.42192-0.145614c1.747363 0 3.349113 0 4.805249 0.145614l1.310522 0.072807-0.145613 0.873681-0.291227 2.184204c-3.203499 18.056087-14.270133 42.956013-38.369185 88.387458l-19.366609 36.18498c-34.947265 66.399803-43.756888 90.134821-40.844616 120.786484 4.004374 42.810399 65.089281 46.596353 74.408551 4.586829 14.56136-65.526122 66.982258-132.289959 135.930299-179.8328 57.007726-39.170059 111.976861-53.877033 123.261916-44.84899l5.606123 4.586828c15.216622 12.813997 15.726269 17.692053 10.629793 26.64729-4.586829 8.008748-13.323645 17.837666-27.375357 30.72447l-3.931567 3.64034c-9.10085 8.008748-47.397228 40.407775-55.697204 47.615648-49.508625 43.392854-80.81555 80.233096-99.672511 125.591733-16.891178 40.844616-29.923596 98.507603-34.437617 148.817103-2.329818 25.627994-2.257011 47.834069 0.582454 64.870861 5.46051 32.763061 22.497302 57.735794 58.536669 50.819147l7.4991-1.456136c24.244665-5.606124 36.840242-14.998201 103.385659-70.768211l20.604324-17.182405c8.518396-7.06226 17.182405-13.978906 25.992029-20.604325 43.02882-32.54464 67.710326-40.407775 78.485732-31.816573 29.705175 23.662211 23.370983 46.814774-29.559562 95.668138l-4.004374 3.64034c-13.396452 12.158736-27.302551 23.735017-48.052489 40.043741l-50.018273 39.024446c-66.69103 52.420897-88.751491 73.607677-107.317225 105.933896-46.814774 81.252391-54.605101 157.917953-39.17006 221.915132l2.038591 7.863135c2.111397 7.353487 4.149988 13.105224 5.824544 17.036791a37.713923 37.713923 0 0 0 70.258564-27.666585l-1.747364-4.659635a112.340895 112.340895 0 0 1-2.985079-10.338566c-11.139441-46.086706-5.314897-103.021624 31.234118-166.509155 13.032418-22.642915 35.820946-43.24724 105.424249-97.415501l28.540267-22.206075c24.608699-19.293802 40.771809-32.617447 56.643691-47.033193 86.130446-78.121698 108.991782-151.438148 29.923596-214.343225-48.343716-38.587605-102.511977-21.113973-171.095984 30.578857-8.809623 6.698226-17.76486 13.833292-28.249039 22.497302l-41.645491 34.728844c-9.901725 8.154362-17.837666 14.56136-24.390278 19.657837l-2.693852 2.184204 0.072807-2.402625 0.582454-10.047339 0.509648-5.242089c3.785954-43.101627 15.143815-93.411127 28.977107-126.683835 13.396452-32.180606 38.077957-61.303327 79.650641-97.706728l52.275284-44.63057 4.07718-3.64034c21.914847-19.657836 36.476208-35.675333 46.45074-53.003351 25.627994-44.703376 13.250838-89.625173-34.728844-127.848744-44.994603-35.74814-123.989983-16.454337-198.762569 32.107799l-7.644714 5.096476 0.145613-1.892976C607.231297 33.491129 578.982258 1.383329 526.197326 0L521.828918 0z" fill="#757575" p-id="889"></path></svg>