<?xml version="1.0" standalone="no"?><!DOCTYPE svg PUBLIC "-//W3C//DTD SVG 1.1//EN" "http://www.w3.org/Graphics/SVG/1.1/DTD/svg11.dtd"><svg class="icon" width="200px" height="200.00px" viewBox="0 0 1024 1024" version="1.1" xmlns="http://www.w3.org/2000/svg"><path fill="#63bbf6" d="M149.333333 128a21.333333 21.333333 0 0 0-21.333333 21.333333v725.333334a21.333333 21.333333 0 0 0 21.333333 21.333333h725.333334a21.333333 21.333333 0 0 0 21.333333-21.333333V149.333333a21.333333 21.333333 0 0 0-21.333333-21.333333H149.333333z m21.333334 725.333333V170.666667h682.666666v682.666666H170.666667z m496.576-482.048l109.482666-91.221333-27.306666-32.768-109.482667 91.221333a42.666667 42.666667 0 0 1-49.28 3.797334l-44.245333-26.56L584.832 277.333333 554.666667 247.168l-45.973334 45.973333-53.397333-32.042666a85.333333 85.333333 0 0 0-98.538667 7.616l-109.461333 91.221333 27.306667 32.768 109.461333-91.221333a42.666667 42.666667 0 0 1 49.28-3.797334l44.245333 26.538667L439.168 362.666667 469.333333 392.832l45.973334-45.973333 53.418666 32.042666a85.333333 85.333333 0 0 0 98.517334-7.616z m0 384l109.482666-91.221333-27.306666-32.768-109.482667 91.221333a42.666667 42.666667 0 0 1-49.28 3.797334l-44.245333-26.56L584.832 661.333333 554.666667 631.168l-45.973334 45.973333-53.397333-32.042666a85.333333 85.333333 0 0 0-98.538667 7.616l-109.461333 91.221333 27.306667 32.768 109.461333-91.221333a42.666667 42.666667 0 0 1 49.28-3.797334l44.245333 26.56L439.168 746.666667 469.333333 776.832l45.973334-45.973333 53.418666 32.042666a85.333333 85.333333 0 0 0 98.517334-7.616z m0-192l109.482666-91.221333-27.306666-32.768-109.482667 91.221333a42.666667 42.666667 0 0 1-49.28 3.797334l-135.36-81.216a85.333333 85.333333 0 0 0-98.538667 7.616l-109.461333 91.221333 27.306667 32.768 109.461333-91.221333a42.666667 42.666667 0 0 1 49.28-3.797334l135.381333 81.216a85.333333 85.333333 0 0 0 98.517334-7.616z"  /></svg>