<?xml version="1.0" standalone="no"?><!DOCTYPE svg PUBLIC "-//W3C//DTD SVG 1.1//EN" "http://www.w3.org/Graphics/SVG/1.1/DTD/svg11.dtd"><svg t="1716310282139" class="icon" viewBox="0 0 1024 1024" version="1.1" xmlns="http://www.w3.org/2000/svg" p-id="4197" width="200" height="200" xmlns:xlink="http://www.w3.org/1999/xlink"><path d="M85.312 341.312V192q0-44.16 31.232-75.456Q147.84 85.312 192 85.312h640q44.16 0 75.456 31.232 31.232 31.296 31.232 75.456v149.312a42.688 42.688 0 1 1-85.376 0V192q0-21.312-21.312-21.312H192q-8.832 0-15.104 6.208-6.208 6.272-6.208 15.104v149.312a42.688 42.688 0 1 1-85.376 0zM938.688 682.688V832q0 44.16-31.232 75.456-31.296 31.232-75.456 31.232H192q-44.16 0-75.456-31.232-31.232-31.296-31.232-75.456v-149.312a42.688 42.688 0 0 1 85.376 0V832q0 21.312 21.312 21.312h640q8.832 0 15.104-6.208 6.208-6.272 6.208-15.104v-149.312a42.688 42.688 0 0 1 85.376 0z" p-id="4198" fill="#63BBF6"></path><path d="M917.312 554.688h-173.12l-136.064 156.032a42.688 42.688 0 0 1-71.232-10.944L414.72 420.352 311.168 539.904a42.688 42.688 0 0 1-32.256 14.72H106.688a42.688 42.688 0 0 1 0-85.312h152.768l134.976-155.904a42.688 42.688 0 0 1 71.296 10.88L588.16 603.776l104.512-119.872a42.688 42.688 0 0 1 32.192-14.656h192.512a42.688 42.688 0 1 1 0 85.376z" p-id="4199" fill="#63BBF6"></path></svg>