<?xml version="1.0" standalone="no"?><!DOCTYPE svg PUBLIC "-//W3C//DTD SVG 1.1//EN" "http://www.w3.org/Graphics/SVG/1.1/DTD/svg11.dtd"><svg class="icon" width="200px" height="200.00px" viewBox="0 0 1024 1024" version="1.1" xmlns="http://www.w3.org/2000/svg"><path fill="#63bbf6" d="M128 226.133333v314.453334c0 11.306667 4.010667 20.992 11.989333 29.013333a39.466667 39.466667 0 0 0 29.013334 11.946667 39.466667 39.466667 0 0 0 28.928-11.946667 39.466667 39.466667 0 0 0 12.032-29.013333V381.44h604.074666v416.426667c0 10.794667-5.376 16.213333-16.213333 16.213333H369.066667a39.466667 39.466667 0 0 0-28.970667 11.946667 39.466667 39.466667 0 0 0-11.989333 29.013333c0 11.306667 4.010667 20.949333 11.989333 28.970667a39.466667 39.466667 0 0 0 29.013333 11.989333H797.866667c27.093333 0 50.218667-9.557333 69.376-28.757333 19.2-19.157333 28.757333-42.282667 28.757333-69.376V226.133333c0-27.093333-9.6-50.218667-28.757333-69.376A94.549333 94.549333 0 0 0 797.866667 128H226.133333c-27.093333 0-50.218667 9.6-69.376 28.757333C137.557333 175.914667 128 199.04 128 226.133333z m686.08 73.386667H209.92V226.133333c0-10.794667 5.418667-16.213333 16.213333-16.213333h571.733334c4.48 0 8.277333 1.621333 11.434666 4.778667a15.616 15.616 0 0 1 4.736 11.434666v73.386667z m-40.874667 246.442667c8.106667 7.893333 12.202667 17.493333 12.373334 28.8a39.509333 39.509333 0 0 1-11.648 29.141333 39.466667 39.466667 0 0 1-28.842667 12.373333 39.466667 39.466667 0 0 1-29.098667-11.648l-35.968-35.072-124.672 124.458667a39.552 39.552 0 0 1-28.544 11.989333 39.509333 39.509333 0 0 1-28.757333-11.392l-96.256-92.16-183.594667 185.429334a39.466667 39.466667 0 0 1-28.885333 12.16 39.466667 39.466667 0 0 1-29.013333-11.861334 39.466667 39.466667 0 0 1-12.202667-28.928 39.466667 39.466667 0 0 1 11.861333-29.013333l211.925334-214.101333a39.509333 39.509333 0 0 1 28.586666-12.16 39.509333 39.509333 0 0 1 28.885334 11.392l96.426666 92.373333 124.928-124.757333a39.509333 39.509333 0 0 1 28.714667-11.946667 39.509333 39.509333 0 0 1 28.842667 11.648l64.896 63.274667z"  /></svg>